<mxfile host="app.diagrams.net" modified="2023-03-08T11:32:13.434Z" agent="5.0 (Windows NT 10.0; Win64; x64) AppleWebKit/537.36 (KHTML, like Gecko) Chrome/110.0.0.0 Safari/537.36" etag="KM27wyoV802sJ2bl46xo" version="21.0.2" type="github">
  <diagram name="第 1 页" id="0gMJPrDWbEy2gwF-UR-g">
    <mxGraphModel dx="3915" dy="796" grid="1" gridSize="10" guides="1" tooltips="1" connect="1" arrows="1" fold="1" page="1" pageScale="1" pageWidth="827" pageHeight="1169" math="0" shadow="0">
      <root>
        <mxCell id="0" />
        <mxCell id="1" parent="0" />
        <mxCell id="WTG5-pqi8x4NK2DUPrdu-14" style="edgeStyle=orthogonalEdgeStyle;rounded=0;orthogonalLoop=1;jettySize=auto;html=1;exitX=1;exitY=0.5;exitDx=0;exitDy=0;entryX=0;entryY=0.5;entryDx=0;entryDy=0;" edge="1" parent="1" source="WTG5-pqi8x4NK2DUPrdu-7" target="WTG5-pqi8x4NK2DUPrdu-13">
          <mxGeometry relative="1" as="geometry" />
        </mxCell>
        <mxCell id="WTG5-pqi8x4NK2DUPrdu-7" value="&lt;pre style=&quot;background-color: rgb(255, 255, 255); font-family: 宋体; font-size: 10.5pt;&quot;&gt;base_trade_rate&lt;/pre&gt;" style="rounded=1;whiteSpace=wrap;html=1;" vertex="1" parent="1">
          <mxGeometry x="-2090" y="190" width="120" height="60" as="geometry" />
        </mxCell>
        <mxCell id="WTG5-pqi8x4NK2DUPrdu-26" value="" style="edgeStyle=orthogonalEdgeStyle;rounded=0;orthogonalLoop=1;jettySize=auto;html=1;" edge="1" parent="1" source="WTG5-pqi8x4NK2DUPrdu-6" target="WTG5-pqi8x4NK2DUPrdu-25">
          <mxGeometry relative="1" as="geometry" />
        </mxCell>
        <mxCell id="WTG5-pqi8x4NK2DUPrdu-29" style="edgeStyle=orthogonalEdgeStyle;rounded=0;orthogonalLoop=1;jettySize=auto;html=1;exitX=1;exitY=0.75;exitDx=0;exitDy=0;entryX=0;entryY=0.5;entryDx=0;entryDy=0;" edge="1" parent="1" source="WTG5-pqi8x4NK2DUPrdu-6" target="WTG5-pqi8x4NK2DUPrdu-28">
          <mxGeometry relative="1" as="geometry" />
        </mxCell>
        <mxCell id="WTG5-pqi8x4NK2DUPrdu-6" value="&lt;pre style=&quot;border-color: var(--border-color); font-family: 宋体; font-size: 10.5pt;&quot;&gt;base_trade_rate_terms_行业&lt;/pre&gt;" style="rounded=0;whiteSpace=wrap;html=1;" vertex="1" parent="1">
          <mxGeometry x="-1606" y="320" width="250" height="50" as="geometry" />
        </mxCell>
        <mxCell id="WTG5-pqi8x4NK2DUPrdu-21" value="替换特殊字符以及词" style="edgeStyle=orthogonalEdgeStyle;rounded=0;orthogonalLoop=1;jettySize=auto;html=1;exitX=1;exitY=0.5;exitDx=0;exitDy=0;entryX=0;entryY=0.5;entryDx=0;entryDy=0;curved=1;" edge="1" parent="1" source="WTG5-pqi8x4NK2DUPrdu-13" target="WTG5-pqi8x4NK2DUPrdu-17">
          <mxGeometry relative="1" as="geometry" />
        </mxCell>
        <mxCell id="WTG5-pqi8x4NK2DUPrdu-22" value="t同上-但是有分值为0" style="edgeStyle=orthogonalEdgeStyle;rounded=0;orthogonalLoop=1;jettySize=auto;html=1;exitX=1;exitY=0.5;exitDx=0;exitDy=0;entryX=0;entryY=0.5;entryDx=0;entryDy=0;" edge="1" parent="1" source="WTG5-pqi8x4NK2DUPrdu-13" target="WTG5-pqi8x4NK2DUPrdu-18">
          <mxGeometry relative="1" as="geometry">
            <mxPoint as="offset" />
          </mxGeometry>
        </mxCell>
        <mxCell id="WTG5-pqi8x4NK2DUPrdu-24" value="插入内容" style="edgeStyle=orthogonalEdgeStyle;rounded=0;orthogonalLoop=1;jettySize=auto;html=1;exitX=1;exitY=0.5;exitDx=0;exitDy=0;entryX=0;entryY=0.5;entryDx=0;entryDy=0;curved=1;" edge="1" parent="1" source="WTG5-pqi8x4NK2DUPrdu-13" target="WTG5-pqi8x4NK2DUPrdu-6">
          <mxGeometry relative="1" as="geometry" />
        </mxCell>
        <mxCell id="WTG5-pqi8x4NK2DUPrdu-13" value="处理" style="shape=step;perimeter=stepPerimeter;whiteSpace=wrap;html=1;fixedSize=1;" vertex="1" parent="1">
          <mxGeometry x="-1900" y="180" width="120" height="80" as="geometry" />
        </mxCell>
        <mxCell id="WTG5-pqi8x4NK2DUPrdu-17" value="&lt;pre style=&quot;border-color: var(--border-color); font-family: 宋体; font-size: 10.5pt;&quot;&gt;leng_sentence_register_行业&lt;/pre&gt;" style="rounded=0;whiteSpace=wrap;html=1;" vertex="1" parent="1">
          <mxGeometry x="-1606" y="80" width="250" height="50" as="geometry" />
        </mxCell>
        <mxCell id="WTG5-pqi8x4NK2DUPrdu-18" value="&lt;pre style=&quot;border-color: var(--border-color); font-family: 宋体; font-size: 10.5pt;&quot;&gt;leng_sentence_label_rate_行业&lt;/pre&gt;" style="rounded=0;whiteSpace=wrap;html=1;" vertex="1" parent="1">
          <mxGeometry x="-1606" y="195" width="250" height="50" as="geometry" />
        </mxCell>
        <mxCell id="WTG5-pqi8x4NK2DUPrdu-25" value="&lt;pre style=&quot;background-color: rgb(255, 255, 255); font-family: 宋体; font-size: 10.5pt;&quot;&gt;comment_temp_content_行业&lt;/pre&gt;" style="whiteSpace=wrap;html=1;rounded=0;" vertex="1" parent="1">
          <mxGeometry x="-1220" y="317.5" width="221" height="55" as="geometry" />
        </mxCell>
        <mxCell id="WTG5-pqi8x4NK2DUPrdu-28" value="&lt;pre style=&quot;background-color: rgb(255, 255, 255); font-family: 宋体; font-size: 10.5pt;&quot;&gt;voc_default.csv&lt;/pre&gt;&lt;pre style=&quot;background-color: rgb(255, 255, 255); font-family: 宋体; font-size: 10.5pt;&quot;&gt;&lt;pre style=&quot;font-family: 宋体; font-size: 10.5pt;&quot;&gt;voc_dj.csv&lt;/pre&gt;&lt;pre style=&quot;font-family: 宋体; font-size: 10.5pt;&quot;&gt;voc_sj.csv&lt;/pre&gt;&lt;/pre&gt;" style="shape=process;whiteSpace=wrap;html=1;backgroundOutline=1;" vertex="1" parent="1">
          <mxGeometry x="-1210" y="410" width="170" height="90" as="geometry" />
        </mxCell>
      </root>
    </mxGraphModel>
  </diagram>
</mxfile>
